<svg width="113" height="35" viewBox="0 0 113 35" fill="none" xmlns="http://www.w3.org/2000/svg">
<rect x="0.25" y="0.25" width="112.5" height="34.5" stroke="white" stroke-width="0.5"/>
<rect x="8.875" y="7.8125" width="46.5" height="19.375" rx="2" fill="white"/>
<path d="M40.9851 14.5478V17.4145H44.1102V18.3373H40.9851V21.2902H44.4793V22.213H39.8655V13.625H44.4793V14.5478H40.9851Z" fill="#0E100F"/>
<path d="M38.4878 13.6373V14.5478H36.1501V22.213H35.0305V14.5478H32.6805V13.6373H38.4878Z" fill="#0E100F"/>
<path d="M31.3009 13.6373V22.213H30.1812V13.6373H31.3009Z" fill="#0E100F"/>
<path d="M25.9899 21.3025H28.992V22.213H24.8702V13.6373H25.9899V21.3025Z" fill="#0E100F"/>
<path d="M19.6821 14.5478V17.4145H22.8073V18.3373H19.6821V21.2902H23.1764V22.213H18.5625V13.625H23.1764V14.5478H19.6821Z" fill="#0E100F"/>
<path d="M97.2669 18.0189L99.9253 22.2896H98.35L96.4177 19.1881L94.6085 22.2896H93.0455L95.7039 18.0189L93.0332 13.7359H94.6085L96.5531 16.862L98.3746 13.7359H99.9376L97.2669 18.0189Z" fill="white"/>
<path d="M88.2894 14.8681V17.3789H91.2432V18.5235H88.2894V21.1449H91.6124V22.2895H86.8864V13.7236H91.6124V14.8681H88.2894Z" fill="white"/>
<path d="M83.5533 22.2896L81.5842 18.8681H80.5134V22.2896H79.1104V13.7359H82.0641C82.7205 13.7359 83.2744 13.8508 83.7256 14.0805C84.1851 14.3102 84.5256 14.6179 84.7472 15.0036C84.9769 15.3892 85.0918 15.82 85.0918 16.2958C85.0918 16.8538 84.9277 17.3625 84.5995 17.822C84.2795 18.2732 83.7831 18.5809 83.1103 18.745L85.2272 22.2896H83.5533ZM80.5134 17.7481H82.0641C82.5893 17.7481 82.9831 17.6168 83.2457 17.3543C83.5164 17.0917 83.6518 16.7389 83.6518 16.2958C83.6518 15.8528 83.5205 15.5082 83.258 15.262C82.9954 15.0077 82.5975 14.8805 82.0641 14.8805H80.5134V17.7481Z" fill="white"/>
<path d="M73.3606 22.3756C72.5647 22.3756 71.8304 22.191 71.1576 21.8217C70.493 21.4443 69.9638 20.9233 69.5699 20.2587C69.1843 19.5859 68.9915 18.831 68.9915 17.9941C68.9915 17.1572 69.1843 16.4065 69.5699 15.7419C69.9638 15.0773 70.493 14.5604 71.1576 14.1911C71.8304 13.8137 72.5647 13.625 73.3606 13.625C74.1647 13.625 74.899 13.8137 75.5636 14.1911C76.2364 14.5604 76.7657 15.0773 77.1513 15.7419C77.5369 16.4065 77.7297 17.1572 77.7297 17.9941C77.7297 18.831 77.5369 19.5859 77.1513 20.2587C76.7657 20.9233 76.2364 21.4443 75.5636 21.8217C74.899 22.191 74.1647 22.3756 73.3606 22.3756ZM73.3606 21.1571C73.9267 21.1571 74.4313 21.03 74.8744 20.7756C75.3175 20.5131 75.6621 20.1438 75.9082 19.6679C76.1626 19.1839 76.2898 18.6259 76.2898 17.9941C76.2898 17.3624 76.1626 16.8085 75.9082 16.3326C75.6621 15.8567 75.3175 15.4916 74.8744 15.2373C74.4313 14.9829 73.9267 14.8557 73.3606 14.8557C72.7945 14.8557 72.2899 14.9829 71.8468 15.2373C71.4037 15.4916 71.055 15.8567 70.8007 16.3326C70.5545 16.8085 70.4314 17.3624 70.4314 17.9941C70.4314 18.6259 70.5545 19.1839 70.8007 19.6679C71.055 20.1438 71.4037 20.5131 71.8468 20.7756C72.2899 21.03 72.7945 21.1571 73.3606 21.1571Z" fill="white"/>
<path d="M68.1587 13.7359V14.8805H64.528V17.4035H67.3588V18.5481H64.528V22.2896H63.125V13.7359H68.1587Z" fill="white"/>
</svg>
